<?xml version="1.0" encoding="utf-8"?>
<svg version="1.1" xmlns:xlink="http://www.w3.org/1999/xlink" width="27px" height="27px" xmlns="http://www.w3.org/2000/svg">
  <g transform="matrix(1 0 0 1 -37 0 )">
    <path d="M 50.5 0  C 58.06 0  64 5.9399999999999995  64 13.5  C 64 21.060000000000002  58.06 27  50.5 27  C 42.94 27  37 21.060000000000002  37 13.5  C 37 5.9399999999999995  42.94 0  50.5 0  Z " fill-rule="nonzero" fill="#333333" stroke="none" />
    <path d="M 50.5 0.5  C 57.78 0.5  63.5 6.219999999999999  63.5 13.5  C 63.5 20.78  57.78 26.5  50.5 26.5  C 43.22 26.5  37.5 20.78  37.5 13.5  C 37.5 6.219999999999999  43.22 0.5  50.5 0.5  Z " stroke-width="1" stroke="#797979" fill="none" />
  </g>
</svg>